<svg fill="none" height="471" viewBox="0 0 182 471" width="182" xmlns="http://www.w3.org/2000/svg" xmlns:xlink="http://www.w3.org/1999/xlink"><linearGradient id="a"><stop offset="0" stop-color="#a78bfa"/><stop offset="1" stop-color="#e0a458"/></linearGradient><linearGradient id="b" gradientUnits="userSpaceOnUse" x1="9" x2="182.013" xlink:href="#a" y1="56.1452" y2="26.0726"/><linearGradient id="c" gradientUnits="userSpaceOnUse" x1=".000001" x2="173.013" xlink:href="#a" y1="48.1452" y2="18.0726"/><clipPath id="d"><path d="m0 0h173v460.721h-173z"/></clipPath><path d="m172.721 19.0902 8.279 7.3589v413.9389l-171.69531 29.545-8.29472-7.373 8.97259-406.0426z" fill="url(#b)"/><path d="m172.721 19.0902 8.279 7.3589v413.9389l-171.69531 29.545-8.29472-7.373 8.97259-406.0426z" fill="#000" fill-opacity=".5"/><g stroke="#fff"><path d="m172.721 19.0902 8.279 7.3589v413.9389l-171.69531 29.545-8.29472-7.373 8.97259-406.0426z" stroke-linejoin="bevel" stroke-width="2"/><path d="m1 461.813v-413.2528l171-29.3738v413.2016z" fill="url(#c)" stroke-linejoin="bevel" stroke-width="2"/><path d="m171.5 432 9 8" stroke-width="2"/><g clip-path="url(#d)" stroke-linejoin="bevel" stroke-width="3"><path d="m0 48.0249 281-48.0249" stroke-opacity=".02"/><path d="m0 51.0249 281-48.0249" stroke-opacity=".15"/><path d="m0 54.0498 281-48.0249" stroke-opacity=".02"/><path d="m0 57.0498 281-48.0249" stroke-opacity=".15"/><path d="m0 60.0747 281-48.0249" stroke-opacity=".02"/><path d="m0 63.0747 281-48.0249" stroke-opacity=".15"/><path d="m0 66.0996 281-48.0249" stroke-opacity=".02"/><path d="m0 69.0996 281-48.0249" stroke-opacity=".15"/><path d="m0 72.1248 281-48.0249" stroke-opacity=".02"/><path d="m0 75.1248 281-48.0249" stroke-opacity=".15"/><path d="m0 78.1497 281-48.0249" stroke-opacity=".02"/><path d="m0 81.1497 281-48.0249" stroke-opacity=".15"/><path d="m0 84.1746 281-48.0249" stroke-opacity=".02"/><path d="m0 87.1746 281-48.0249" stroke-opacity=".15"/><path d="m0 90.1995 281-48.0249" stroke-opacity=".02"/><path d="m0 93.1995 281-48.0249" stroke-opacity=".15"/><path d="m0 96.2244 281-48.0249" stroke-opacity=".02"/><path d="m0 99.2244 281-48.0249" stroke-opacity=".15"/><path d="m0 102.249 281-48.0246" stroke-opacity=".02"/><path d="m0 105.249 281-48.0246" stroke-opacity=".15"/><path d="m0 108.274 281-48.0247" stroke-opacity=".02"/><path d="m0 111.274 281-48.0247" stroke-opacity=".15"/><path d="m0 114.299 281-48.0246" stroke-opacity=".02"/><path d="m0 117.299 281-48.0246" stroke-opacity=".15"/><path d="m0 120.324 281-48.0247" stroke-opacity=".02"/><path d="m0 123.324 281-48.0247" stroke-opacity=".15"/><path d="m0 126.349 281-48.0248" stroke-opacity=".02"/><path d="m0 129.349 281-48.0248" stroke-opacity=".15"/><path d="m0 132.374 281-48.0249" stroke-opacity=".02"/><path d="m0 135.374 281-48.0249" stroke-opacity=".15"/><path d="m0 138.399 281-48.025" stroke-opacity=".02"/><path d="m0 141.399 281-48.025" stroke-opacity=".15"/><path d="m0 144.424 281-48.0251" stroke-opacity=".02"/><path d="m0 147.424 281-48.0251" stroke-opacity=".15"/><path d="m0 150.449 281-48.025" stroke-opacity=".02"/><path d="m0 153.449 281-48.025" stroke-opacity=".15"/><path d="m0 156.474 281-48.025" stroke-opacity=".02"/><path d="m0 159.474 281-48.025" stroke-opacity=".15"/><path d="m0 162.499 281-48.025" stroke-opacity=".02"/><path d="m0 165.499 281-48.025" stroke-opacity=".15"/><path d="m0 168.524 281-48.025" stroke-opacity=".02"/><path d="m0 171.524 281-48.025" stroke-opacity=".15"/><path d="m0 174.549 281-48.025" stroke-opacity=".02"/><path d="m0 177.549 281-48.025" stroke-opacity=".15"/><path d="m0 180.574 281-48.025" stroke-opacity=".02"/><path d="m0 183.574 281-48.025" stroke-opacity=".15"/><path d="m0 186.598 281-48.025" stroke-opacity=".02"/><path d="m0 189.598 281-48.025" stroke-opacity=".15"/><path d="m0 192.623 281-48.025" stroke-opacity=".02"/><path d="m0 195.623 281-48.025" stroke-opacity=".15"/><path d="m0 198.648 281-48.025" stroke-opacity=".02"/><path d="m0 201.648 281-48.025" stroke-opacity=".15"/><path d="m0 204.673 281-48.025" stroke-opacity=".02"/><path d="m0 207.673 281-48.025" stroke-opacity=".15"/><path d="m0 210.698 281-48.025" stroke-opacity=".02"/><path d="m0 213.698 281-48.025" stroke-opacity=".15"/><path d="m0 216.723 281-48.025" stroke-opacity=".02"/><path d="m0 219.723 281-48.025" stroke-opacity=".15"/><path d="m0 222.748 281-48.025" stroke-opacity=".02"/><path d="m0 225.748 281-48.025" stroke-opacity=".15"/><path d="m0 228.773 281-48.025" stroke-opacity=".02"/><path d="m0 231.773 281-48.025" stroke-opacity=".15"/><path d="m0 234.798 281-48.025" stroke-opacity=".02"/><path d="m0 237.798 281-48.025" stroke-opacity=".15"/><path d="m0 240.823 281-48.025" stroke-opacity=".02"/><path d="m0 243.823 281-48.025" stroke-opacity=".15"/><path d="m0 246.848 281-48.025" stroke-opacity=".02"/><path d="m0 249.848 281-48.025" stroke-opacity=".15"/><path d="m0 252.873 281-48.025" stroke-opacity=".02"/><path d="m0 255.873 281-48.025" stroke-opacity=".15"/><path d="m0 258.898 281-48.025" stroke-opacity=".02"/><path d="m0 261.898 281-48.025" stroke-opacity=".15"/><path d="m0 264.923 281-48.025" stroke-opacity=".02"/><path d="m0 267.923 281-48.025" stroke-opacity=".15"/><path d="m0 270.948 281-48.025" stroke-opacity=".02"/><path d="m0 273.948 281-48.025" stroke-opacity=".15"/><path d="m0 276.972 281-48.024" stroke-opacity=".02"/><path d="m0 279.972 281-48.024" stroke-opacity=".15"/><path d="m0 282.997 281-48.025" stroke-opacity=".02"/><path d="m0 285.997 281-48.025" stroke-opacity=".15"/><path d="m0 289.022 281-48.025" stroke-opacity=".02"/><path d="m0 292.022 281-48.025" stroke-opacity=".15"/><path d="m0 295.047 281-48.025" stroke-opacity=".02"/><path d="m0 298.047 281-48.025" stroke-opacity=".15"/><path d="m0 301.072 281-48.025" stroke-opacity=".02"/><path d="m0 304.072 281-48.025" stroke-opacity=".15"/><path d="m0 307.097 281-48.025" stroke-opacity=".02"/><path d="m0 310.097 281-48.025" stroke-opacity=".15"/><path d="m0 313.122 281-48.025" stroke-opacity=".02"/><path d="m0 316.122 281-48.025" stroke-opacity=".15"/><path d="m0 319.147 281-48.025" stroke-opacity=".02"/><path d="m0 322.147 281-48.025" stroke-opacity=".15"/><path d="m0 325.172 281-48.025" stroke-opacity=".02"/><path d="m0 328.172 281-48.025" stroke-opacity=".15"/><path d="m0 331.197 281-48.025" stroke-opacity=".02"/><path d="m0 334.197 281-48.025" stroke-opacity=".15"/><path d="m0 337.222 281-48.025" stroke-opacity=".02"/><path d="m0 340.222 281-48.025" stroke-opacity=".15"/><path d="m0 343.247 281-48.025" stroke-opacity=".02"/><path d="m0 346.247 281-48.025" stroke-opacity=".15"/><path d="m0 349.272 281-48.025" stroke-opacity=".02"/><path d="m0 352.272 281-48.025" stroke-opacity=".15"/><path d="m0 355.297 281-48.025" stroke-opacity=".02"/><path d="m0 358.297 281-48.025" stroke-opacity=".15"/><path d="m0 361.322 281-48.025" stroke-opacity=".02"/><path d="m0 364.322 281-48.025" stroke-opacity=".15"/><path d="m0 367.346 281-48.024" stroke-opacity=".02"/><path d="m0 370.346 281-48.024" stroke-opacity=".15"/><path d="m0 373.371 281-48.025" stroke-opacity=".02"/><path d="m0 376.371 281-48.025" stroke-opacity=".15"/><path d="m0 379.396 281-48.025" stroke-opacity=".02"/><path d="m0 382.396 281-48.025" stroke-opacity=".15"/><path d="m0 385.421 281-48.025" stroke-opacity=".02"/><path d="m0 388.421 281-48.025" stroke-opacity=".15"/><path d="m0 391.446 281-48.025" stroke-opacity=".02"/><path d="m0 394.446 281-48.025" stroke-opacity=".15"/><path d="m0 397.471 281-48.025" stroke-opacity=".02"/><path d="m0 400.471 281-48.025" stroke-opacity=".15"/><path d="m0 403.496 281-48.025" stroke-opacity=".02"/><path d="m0 406.496 281-48.025" stroke-opacity=".15"/><path d="m0 409.521 281-48.025" stroke-opacity=".02"/><path d="m0 412.521 281-48.025" stroke-opacity=".15"/><path d="m0 415.546 281-48.025" stroke-opacity=".02"/><path d="m0 418.546 281-48.025" stroke-opacity=".15"/><path d="m0 421.571 281-48.025" stroke-opacity=".02"/><path d="m0 424.571 281-48.025" stroke-opacity=".15"/><path d="m0 427.596 281-48.025" stroke-opacity=".02"/><path d="m0 430.596 281-48.025" stroke-opacity=".15"/><path d="m0 433.621 281-48.025" stroke-opacity=".02"/><path d="m0 436.621 281-48.025" stroke-opacity=".15"/><path d="m0 439.646 281-48.025" stroke-opacity=".02"/><path d="m0 442.646 281-48.025" stroke-opacity=".15"/><path d="m0 445.67 281-48.024" stroke-opacity=".02"/><path d="m0 448.67 281-48.024" stroke-opacity=".15"/><path d="m0 451.696 281-48.025" stroke-opacity=".02"/><path d="m0 454.696 281-48.025" stroke-opacity=".15"/><path d="m0 457.72 281-48.024" stroke-opacity=".02"/><path d="m0 460.72 281-48.024" stroke-opacity=".15"/></g></g><g transform="matrix(1,-0.171778,0,1,0,0.17178)"><text x="16" y="250" font-family="'Arial','Helvetica Neue',Helvetica,sans-serif" font-size="46" font-weight="900" letter-spacing="0" fill="#FFFFFF">HACK</text><text x="16" y="296" font-family="'Arial','Helvetica Neue',Helvetica,sans-serif" font-size="46" font-weight="900" letter-spacing="0" fill="#FBBF24">TU</text><text x="18" y="334" font-family="'Arial','Helvetica Neue',Helvetica,sans-serif" font-size="20" font-weight="800" letter-spacing="1" fill="#DBEAFE">FLAGSHIP</text><text x="18" y="360" font-family="'Arial','Helvetica Neue',Helvetica,sans-serif" font-size="20" font-weight="800" letter-spacing="1" fill="#DBEAFE">HACKATHON</text></g></svg>